PathFileType	4	(X/Y/Z)	Patient4_TMGait_0pt6_01_right_16.trc.trc
DataRate	CameraRate	NumFrames	NumMarkers	Units	OrigDataRate	OrigDataStartFrame	OrigNumFrames
80.459770114943	80.459770114943	6	33	mm	80.459770114943	124	       141
Frame#	Time	Sacral			L.Shoulder			Chest			R.Shoulder			Neck			R.ASIS			L.ASIS			R.Thigh.Superior			R.Thigh.Lateral			R.Thigh.Inferior			R.Patella			L.Thigh.Superior			L.Thigh.Lateral			L.Thigh.Inferior			L.Patella			L.Shank.Superior			L.Shank.Lateral			L.Shank.Inferior			R.Shank.Superior			R.Shank.Lateral			R.Shank.Inferior			R.Heel			R.Midfoot.Superior			R.Midfoot.Lateral			R.Toe			L.Heel			L.Midfoot.Lateral			L.Midfoot.Superior			L.Toe			L.Elbow			L.Wrist			R.Elbow			R.Wrist			
		X1	Y1	Z1	X2	Y2	Z2	X3	Y3	Z3	X4	Y4	Z4	X5	Y5	Z5	X6	Y6	Z6	X7	Y7	Z7	X8	Y8	Z8	X9	Y9	Z9	X10	Y10	Z10	X11	Y11	Z11	X12	Y12	Z12	X13	Y13	Z13	X14	Y14	Z14	X15	Y15	Z15	X16	Y16	Z16	X17	Y17	Z17	X18	Y18	Z18	X19	Y19	Z19	X20	Y20	Z20	X21	Y21	Z21	X22	Y22	Z22	X23	Y23	Z23	X24	Y24	Z24	X25	Y25	Z25	X26	Y26	Z26	X27	Y27	Z27	X28	Y28	Z28	X29	Y29	Z29	X30	Y30	Z30	X31	Y31	Z31	X32	Y32	Z32	X33	Y33	Z33	

124	20.398714285714	632.279485439943	994.453227957917	439.805240972386	815.551421993851	1430.040950645455	282.332120337775	901.141282020746	1358.485937809314	451.644718313376	797.444032051709	1424.100584251195	616.734360500912	779.152673073781	1486.109178274904	435.288022808443	849.215555670105	937.255417022282	580.006731579894	859.518480188318	951.489886266041	304.469007819345	921.779803059642	752.862891845657	556.557385362617	858.897441986978	632.962070760868	615.983422471982	949.878504361687	594.363330297687	541.343776371363	971.028486262746	511.505286477378	550.519076387183	862.438929751802	721.910993554431	337.926611293052	749.448968775204	625.908622505915	271.338890096753	803.185319814420	533.911174471978	342.631009308493	785.104409574755	464.312551329753	353.064594574432	747.987506547896	398.829310643477	343.927291970414	642.469406474601	300.325662664892	287.798492268408	666.456211852631	184.412517598146	364.987862218144	959.005342240847	420.920828727756	559.456806634945	905.300224367060	306.380726154818	619.069523068469	973.453461128496	221.702088091644	564.814202560820	876.704795715948	41.784810232581	532.074323439167	1041.310017397733	106.943386393499	573.399993651613	959.126230577739	38.378163256009	607.740236473800	1163.629672496726	64.828697324388	602.129652217190	517.482496199630	38.979637290049	403.189794006950	594.006377465881	34.712490887400	325.070132783702	677.437138719114	94.700464945242	354.227413465207	806.114995804385	41.158218027044	329.433495778720	860.800540266612	1089.078894539092	141.345958090562	1110.084051752462	1024.305493442893	151.846711256570	651.719146959860	1109.506337385248	712.597160059902	618.142740763121	851.734791278024	730.387528826768	
125	20.411142857143	634.319000140312	993.352119907910	442.497811645930	815.867832158126	1429.163924565627	284.482389928229	901.863400179091	1358.172525442676	453.855145492116	797.775630092275	1423.267671217346	618.994672622714	779.521039625922	1485.327890944002	437.395053744126	851.598191888310	936.708056383549	582.477106207493	861.604114645325	950.588614586940	307.113196900644	924.341819208956	751.799130734899	558.679556802149	859.717289671172	631.750298534325	616.705243991361	950.956544716048	593.204984872017	542.559462009900	970.326438702249	509.107679929409	550.892104676732	864.109719140656	720.748302822244	339.761284899140	750.826437894473	624.747308506571	273.988964834367	805.385568379417	532.337373412038	344.471265745452	787.425453101927	461.723688129395	354.427696577006	748.006628088637	397.027836069705	345.426261803165	639.914269672313	301.333882155625	289.174640204600	661.490506084165	184.343384142721	365.366629857064	957.209299370916	418.204510684909	559.467795017210	901.453755932858	304.406185995765	618.744069004694	967.525874077966	218.628290559578	563.902090104835	866.529170502445	41.401718385835	531.414966371722	1032.505480788421	103.735621829837	571.869549908723	948.908599199406	37.402479012692	607.172630456396	1154.290457374504	59.331529838428	600.777215787328	509.966862691231	40.749326736390	402.916368685614	586.600169224385	35.322672404117	325.073325465830	670.637999808791	94.848343866459	353.998130345799	798.780941711012	40.587297613439	329.405578801595	859.451578008550	1087.209830501261	144.506654967495	1108.133776933511	1019.629863208150	154.746840296016	655.457274745733	1106.510514068820	714.355170177252	625.896698833274	848.058612639120	731.916725720493	
126	20.423571428571	636.318239391595	992.576333941166	445.341763198958	816.152763942122	1428.569165061157	286.676951490368	902.647742929141	1358.121963392020	456.067214406292	798.300629829587	1422.731206962267	621.316541346990	779.953342401157	1484.861334432274	439.569982373208	853.985637063452	936.481694483577	584.979595677371	863.575565294199	949.991244972991	309.832540530975	926.646590112764	750.875754012622	560.625182328369	860.655243502109	631.000663234284	617.680980236535	951.746049276209	592.264814533988	543.635849044310	969.562240481588	507.043982084737	551.423902600542	866.285445329600	719.961199549364	341.676988871960	752.923835361392	623.644115956118	276.766072400152	808.780698373205	530.919943611832	346.302157546435	791.137372019741	459.128467484508	355.581717669893	749.088111658890	395.312199558088	346.806894266145	638.174300834329	302.867933240124	290.557711130276	657.119015614070	184.730127239983	365.580466652916	955.359270733884	415.930567912014	559.668654876833	897.807374106437	302.836174414436	618.747211176575	961.781964975634	216.017630662032	563.215261594636	856.761596081017	41.153024279323	531.015244002260	1023.942480967492	101.142588876983	570.614411457559	939.142019563439	36.710693770209	606.826716935077	1145.297183472049	54.761214800632	599.634752368397	502.652352888315	43.650390678910	402.571377742204	579.292653817177	36.500313421310	325.036575127733	664.213892057560	95.177794412071	353.595207825538	791.434614162639	39.999586756821	329.373852961079	857.872935570733	1085.479035061869	147.928976031577	1105.682894969772	1013.981443800709	157.669750948660	659.911823936187	1103.549430271010	716.253488729971	634.950877759519	844.374044705586	733.616453153974	
127	20.436000000000	638.230943009294	992.173839015013	448.317955023870	816.418240612631	1428.309226376794	288.899832433792	903.477043908895	1358.353807799583	458.262635628271	799.031208284101	1422.555865823310	623.669166824648	780.442172409443	1484.749750136261	441.791110646793	856.298365557666	936.611149045317	587.522084359983	865.360857507245	949.739210768682	312.609446731328	928.558941553207	750.144123515895	562.424803903772	861.596712322773	630.722001126081	618.945976427757	952.136041485045	591.563188296436	544.621627888553	968.617444229772	505.380505889409	552.155851628095	868.999143628740	719.624544712162	343.707136315062	755.938555770165	622.613357551233	279.611440811547	813.577592367283	529.722294111639	348.107036936807	796.429002464587	456.598961293871	356.495579246942	751.456817268500	393.728388206769	348.022218232064	637.490612822559	305.017220379824	291.912047502102	653.535952541843	185.679485823102	365.592121525405	953.384207175597	414.157146115258	560.094979170346	894.338586958225	301.707030899979	619.089719863282	956.274933970435	213.954189662016	562.794432256502	847.637090009078	41.031395712770	530.845356229842	1015.791407861890	99.225166433504	569.690315289899	930.041380561055	36.286200725921	606.682613694055	1136.824541538921	51.253613767772	598.774745050950	495.696775493917	47.976261856167	402.140104237725	572.174109207132	38.451872906720	324.942903307653	658.297911331365	95.754541358181	352.996184379994	784.081327200196	39.402012647570	329.345456503511	856.084099554073	1083.974718418958	151.610482315685	1102.671625816387	1007.404687022206	160.612981030210	665.076338312959	1100.741290347835	718.295827732720	645.287724442229	840.843301649684	735.483651211872	
128	20.448428571429	640.020719833057	992.154114028770	451.419322656798	816.661422162109	1428.405129240715	291.133850195733	904.324287203799	1358.864139923144	460.420936575234	799.963568728316	1422.777177088878	626.018589357388	780.966677815489	1484.998845792951	444.032182158924	858.475356144330	937.098436116175	590.113092522772	866.899580698396	949.843221644283	315.422945506771	930.002827287915	749.637919846431	564.131953084246	862.403801485872	630.866412737172	620.495542317775	952.051839244519	591.080208161940	545.590637050502	967.366183222631	504.118403104192	553.100823319357	872.260544902207	719.786957967405	345.879670631086	760.044655148641	621.668435622934	282.449726291176	819.927591474766	528.806095533664	349.860414344257	803.421676490140	454.218077943554	357.151477497718	755.302294618324	392.326331215960	349.030909348689	638.092491030714	307.849102150041	293.196750755535	650.938701252666	187.288435156539	365.372971555402	951.185732161436	412.871534555317	560.748309557960	890.943790709006	300.997743483576	619.734131339915	950.958878624066	212.441557153838	562.640645267363	839.209087337244	41.018107295959	530.860219280706	1008.085623103096	97.952274344065	569.104886909645	921.643285839812	36.084703173350	606.703827557614	1128.896856854377	48.787131251183	598.221312711843	489.298668309730	53.990001804189	401.603665156819	565.369583440927	41.390778025754	324.772224883774	653.031367697479	96.653810328050	352.191320614239	776.739140758771	38.795510453565	329.327803415144	854.110716262751	1082.767413455525	155.534420085219	1099.027456210357	999.948983709892	163.578959920921	670.928020018980	1098.184849112713	720.495511442953	656.908633721430	837.621570631329	737.513809890680	
129	20.460857142857	641.659045339695	992.485928433470	454.648427589402	816.860206756079	1428.838101367410	293.361326521293	905.155848439924	1359.623307355432	462.519642500082	801.079367518034	1423.392224736826	628.332177725007	781.496429831881	1485.576937471737	446.265705953563	860.478262688811	937.910559958594	592.755361182959	868.148729387618	950.278501231150	318.249021113576	930.956095071369	749.353744826353	565.820572013873	862.911927513761	631.335512726234	622.291729180457	951.441673666875	590.757719104389	546.629269998964	965.686313714060	503.204985094939	554.238828282469	876.053624557924	720.467802911901	348.210763750196	765.365081709184	620.827039497753	285.195905297854	827.897353296219	528.232036511727	351.531796314278	812.148587222871	452.079523984508	357.552226504020	760.752395402500	391.161073164151	349.806665184536	640.173214499606	311.402267612191	294.370722395509	649.511104754568	189.636908411566	364.910383357847	948.656082406976	412.005955740981	561.599443826189	887.478669387705	300.640125310920	620.609234798337	945.730751021905	211.419376088457	562.720269906848	831.400830089145	41.086976931019	531.007638789701	1000.764941444481	97.226932899570	568.824189063968	913.859172760084	36.047807884435	606.844624702450	1121.436148825951	47.223405189079	597.955509638149	483.690729129883	61.896029778841	400.940286379609	559.039904639674	45.520988719808	324.502483133620	648.555348690005	97.958829197820	351.188381903826	769.444053285382	38.170696226421	329.326321303589	851.982936782562	1081.893675264220	159.667916350733	1094.667025735763	991.667334530147	166.575662059713	677.425762994392	1095.949631445973	722.877419802538	669.832910683009	834.849521308725	739.700534453512	
